solid Untitled-59946efc
facet normal 0.0 -1.0 0.0
  outer loop
    vertex 162.21444315413416 66.31626392184548 120.0
    vertex 152.21444315413416 66.31626392184548 100.0
    vertex 162.21444315413416 66.31626392184548 100.0
  endloop
endfacet
facet normal 0.0 -1.0 0.0
  outer loop
    vertex 152.21444315413416 66.31626392184548 100.0
    vertex 162.21444315413416 66.31626392184548 120.0
    vertex 137.21444315413413 66.31626392184548 100.0
  endloop
endfacet
facet normal 0.0 -1.0 0.0
  outer loop
    vertex 137.21444315413413 66.31626392184548 100.0
    vertex 162.21444315413416 66.31626392184548 120.0
    vertex 67.21444315413414 66.31626392184548 100.0
  endloop
endfacet
facet normal 0.0 -1.0 0.0
  outer loop
    vertex 67.21444315413414 66.31626392184548 100.0
    vertex 162.21444315413416 66.31626392184548 120.0
    vertex 52.21444315413416 66.31626392184548 100.0
  endloop
endfacet
facet normal 0.0 -1.0 0.0
  outer loop
    vertex 52.21444315413416 66.31626392184548 100.0
    vertex 162.21444315413416 66.31626392184548 120.0
    vertex 42.21444315413415 66.31626392184548 100.0
  endloop
endfacet
facet normal 0.0 -1.0 0.0
  outer loop
    vertex 42.21444315413415 66.31626392184548 100.0
    vertex 162.21444315413416 66.31626392184548 120.0
    vertex 42.21444315413415 66.31626392184548 120.0
  endloop
endfacet
facet normal 0.0 -1.0 0.0
  outer loop
    vertex 67.21444315413414 66.31626392184548 100.0
    vertex 52.21444315413416 66.31626392184548 0.0
    vertex 67.21444315413414 66.31626392184548 0.0
  endloop
endfacet
facet normal 0.0 -1.0 0.0
  outer loop
    vertex 52.21444315413416 66.31626392184548 0.0
    vertex 67.21444315413414 66.31626392184548 100.0
    vertex 52.21444315413416 66.31626392184548 100.0
  endloop
endfacet
facet normal 0.0 -1.0 0.0
  outer loop
    vertex 152.21444315413416 66.31626392184548 100.0
    vertex 137.21444315413413 66.31626392184548 0.0
    vertex 152.21444315413416 66.31626392184548 0.0
  endloop
endfacet
facet normal 0.0 -1.0 0.0
  outer loop
    vertex 137.21444315413413 66.31626392184548 0.0
    vertex 152.21444315413416 66.31626392184548 100.0
    vertex 137.21444315413413 66.31626392184548 100.0
  endloop
endfacet
facet normal 0.0 0.0 -1.0
  outer loop
    vertex 52.214443154134166 81.31626392184548 0.0
    vertex 67.21444315413414 66.31626392184548 0.0
    vertex 52.21444315413416 66.31626392184548 0.0
  endloop
endfacet
facet normal 0.0 0.0 -1.0
  outer loop
    vertex 67.21444315413414 66.31626392184548 0.0
    vertex 52.214443154134166 81.31626392184548 0.0
    vertex 67.21444315413414 81.31626392184548 0.0
  endloop
endfacet
facet normal 4.692881377804172e-16 1.0 -1.5179317965819913e-16
  outer loop
    vertex 42.21444315413415 156.3162639218455 120.0
    vertex 52.21444315413416 156.3162639218455 100.0
    vertex 42.21444315413415 156.3162639218455 100.0
  endloop
endfacet
facet normal 4.692881377804172e-16 1.0 -1.5179317965819913e-16
  outer loop
    vertex 52.21444315413416 156.3162639218455 100.0
    vertex 42.21444315413415 156.3162639218455 120.0
    vertex 67.21444315413414 156.3162639218455 100.0
  endloop
endfacet
facet normal 4.692881377804172e-16 1.0 -1.5179317965819913e-16
  outer loop
    vertex 67.21444315413414 156.3162639218455 100.0
    vertex 42.21444315413415 156.3162639218455 120.0
    vertex 137.21444315413413 156.3162639218455 100.0
  endloop
endfacet
facet normal 4.692881377804172e-16 1.0 -1.5179317965819913e-16
  outer loop
    vertex 137.21444315413413 156.3162639218455 100.0
    vertex 42.21444315413415 156.3162639218455 120.0
    vertex 152.21444315413416 156.3162639218454 100.0
  endloop
endfacet
facet normal 4.692881377804172e-16 1.0 -1.5179317965819913e-16
  outer loop
    vertex 152.21444315413416 156.3162639218454 100.0
    vertex 42.21444315413415 156.3162639218455 120.0
    vertex 162.21444315413416 156.3162639218454 100.0
  endloop
endfacet
facet normal 4.692881377804172e-16 1.0 -1.5179317965819913e-16
  outer loop
    vertex 162.21444315413416 156.3162639218454 100.0
    vertex 42.21444315413415 156.3162639218455 120.0
    vertex 162.21444315413416 156.3162639218455 120.0
  endloop
endfacet
facet normal 4.692881377804172e-16 1.0 -1.5179317965819913e-16
  outer loop
    vertex 137.21444315413413 156.3162639218455 100.0
    vertex 152.21444315413416 156.3162639218454 0.0
    vertex 137.21444315413413 156.3162639218455 0.0
  endloop
endfacet
facet normal 4.692881377804172e-16 1.0 -1.5179317965819913e-16
  outer loop
    vertex 152.21444315413416 156.3162639218454 0.0
    vertex 137.21444315413413 156.3162639218455 100.0
    vertex 152.21444315413416 156.3162639218454 100.0
  endloop
endfacet
facet normal 4.692881377804172e-16 1.0 -1.5179317965819913e-16
  outer loop
    vertex 52.21444315413416 156.3162639218455 100.0
    vertex 67.21444315413414 156.3162639218455 0.0
    vertex 52.21444315413416 156.3162639218455 0.0
  endloop
endfacet
facet normal 4.692881377804172e-16 1.0 -1.5179317965819913e-16
  outer loop
    vertex 67.21444315413414 156.3162639218455 0.0
    vertex 52.21444315413416 156.3162639218455 100.0
    vertex 67.21444315413414 156.3162639218455 100.0
  endloop
endfacet
facet normal -0.0 -0.0 1.0
  outer loop
    vertex 162.21444315413416 66.31626392184548 120.0
    vertex 42.21444315413415 156.3162639218455 120.0
    vertex 42.21444315413415 66.31626392184548 120.0
  endloop
endfacet
facet normal -0.0 -0.0 1.0
  outer loop
    vertex 42.21444315413415 156.3162639218455 120.0
    vertex 162.21444315413416 66.31626392184548 120.0
    vertex 162.21444315413416 156.3162639218455 120.0
  endloop
endfacet
facet normal -1.0 0.0 0.0
  outer loop
    vertex 42.21444315413415 156.3162639218455 120.0
    vertex 42.21444315413415 66.31626392184548 100.0
    vertex 42.21444315413415 66.31626392184548 120.0
  endloop
endfacet
facet normal -1.0 0.0 0.0
  outer loop
    vertex 42.21444315413415 66.31626392184548 100.0
    vertex 42.21444315413415 156.3162639218455 120.0
    vertex 42.21444315413415 156.3162639218455 100.0
  endloop
endfacet
facet normal 1.0 -0.0 -0.0
  outer loop
    vertex 162.21444315413416 156.3162639218454 100.0
    vertex 162.21444315413416 66.31626392184548 120.0
    vertex 162.21444315413416 66.31626392184548 100.0
  endloop
endfacet
facet normal 1.0 -0.0 -0.0
  outer loop
    vertex 162.21444315413416 66.31626392184548 120.0
    vertex 162.21444315413416 156.3162639218454 100.0
    vertex 162.21444315413416 156.3162639218455 120.0
  endloop
endfacet
facet normal 1.0 -0.0 -0.0
  outer loop
    vertex 152.21444315413416 156.3162639218454 0.0
    vertex 152.21444315413416 141.31626392184546 95.0
    vertex 152.21444315413416 141.31626392184546 0.0
  endloop
endfacet
facet normal 1.0 -0.0 -0.0
  outer loop
    vertex 152.21444315413416 81.31626392184548 0.0
    vertex 152.21444315413416 66.31626392184548 100.0
    vertex 152.21444315413416 66.31626392184548 0.0
  endloop
endfacet
facet normal 1.0 -0.0 -0.0
  outer loop
    vertex 152.21444315413416 66.31626392184548 100.0
    vertex 152.21444315413416 81.31626392184548 0.0
    vertex 152.21444315413416 81.31626392184548 95.0
  endloop
endfacet
facet normal 1.0 -0.0 -0.0
  outer loop
    vertex 152.21444315413416 66.31626392184548 100.0
    vertex 152.21444315413416 81.31626392184548 95.0
    vertex 152.21444315413416 156.3162639218454 100.0
  endloop
endfacet
facet normal 1.0 -0.0 -0.0
  outer loop
    vertex 152.21444315413416 156.3162639218454 100.0
    vertex 152.21444315413416 81.31626392184548 95.0
    vertex 152.21444315413416 141.31626392184546 95.0
  endloop
endfacet
facet normal 1.0 -0.0 -0.0
  outer loop
    vertex 152.21444315413416 156.3162639218454 100.0
    vertex 152.21444315413416 141.31626392184546 95.0
    vertex 152.21444315413416 156.3162639218454 0.0
  endloop
endfacet
facet normal 1.0 -0.0 -0.0
  outer loop
    vertex 67.21444315413414 156.3162639218455 0.0
    vertex 67.21444315413414 141.31626392184546 95.0
    vertex 67.21444315413414 141.31626392184546 0.0
  endloop
endfacet
facet normal 1.0 -0.0 -0.0
  outer loop
    vertex 67.21444315413414 81.31626392184548 0.0
    vertex 67.21444315413414 66.31626392184548 100.0
    vertex 67.21444315413414 66.31626392184548 0.0
  endloop
endfacet
facet normal 1.0 -0.0 -0.0
  outer loop
    vertex 67.21444315413414 66.31626392184548 100.0
    vertex 67.21444315413414 81.31626392184548 0.0
    vertex 67.21444315413414 81.31626392184548 95.0
  endloop
endfacet
facet normal 1.0 -0.0 -0.0
  outer loop
    vertex 67.21444315413414 66.31626392184548 100.0
    vertex 67.21444315413414 81.31626392184548 95.0
    vertex 67.21444315413414 156.3162639218455 100.0
  endloop
endfacet
facet normal 1.0 -0.0 -0.0
  outer loop
    vertex 67.21444315413414 156.3162639218455 100.0
    vertex 67.21444315413414 81.31626392184548 95.0
    vertex 67.21444315413414 141.31626392184546 95.0
  endloop
endfacet
facet normal 1.0 -0.0 -0.0
  outer loop
    vertex 67.21444315413414 156.3162639218455 100.0
    vertex 67.21444315413414 141.31626392184546 95.0
    vertex 67.21444315413414 156.3162639218455 0.0
  endloop
endfacet
facet normal -0.0 -0.0 -1.0
  outer loop
    vertex 137.21444315413413 156.3162639218455 100.0
    vertex 67.21444315413414 66.31626392184548 100.0
    vertex 67.21444315413414 156.3162639218455 100.0
  endloop
endfacet
facet normal -0.0 -0.0 -1.0
  outer loop
    vertex 67.21444315413414 66.31626392184548 100.0
    vertex 137.21444315413413 156.3162639218455 100.0
    vertex 137.21444315413413 66.31626392184548 100.0
  endloop
endfacet
facet normal 0.0 0.0 -1.0
  outer loop
    vertex 152.21444315413416 81.31626392184548 0.0
    vertex 137.21444315413413 66.31626392184548 0.0
    vertex 137.21444315413413 81.31626392184548 0.0
  endloop
endfacet
facet normal 0.0 0.0 -1.0
  outer loop
    vertex 137.21444315413413 66.31626392184548 0.0
    vertex 152.21444315413416 81.31626392184548 0.0
    vertex 152.21444315413416 66.31626392184548 0.0
  endloop
endfacet
facet normal 0.0 0.0 -1.0
  outer loop
    vertex 152.21444315413416 156.3162639218454 0.0
    vertex 137.21444315413413 141.31626392184546 0.0
    vertex 137.21444315413413 156.3162639218455 0.0
  endloop
endfacet
facet normal 0.0 0.0 -1.0
  outer loop
    vertex 137.21444315413413 141.31626392184546 0.0
    vertex 152.21444315413416 156.3162639218454 0.0
    vertex 152.21444315413416 141.31626392184546 0.0
  endloop
endfacet
facet normal 0.0 0.0 -1.0
  outer loop
    vertex 52.21444315413416 156.3162639218455 100.0
    vertex 42.21444315413415 66.31626392184548 100.0
    vertex 42.21444315413415 156.3162639218455 100.0
  endloop
endfacet
facet normal 0.0 0.0 -1.0
  outer loop
    vertex 42.21444315413415 66.31626392184548 100.0
    vertex 52.21444315413416 156.3162639218455 100.0
    vertex 52.21444315413416 66.31626392184548 100.0
  endloop
endfacet
facet normal 0.0 0.0 -1.0
  outer loop
    vertex 162.21444315413416 156.3162639218454 100.0
    vertex 152.21444315413416 66.31626392184548 100.0
    vertex 152.21444315413416 156.3162639218454 100.0
  endloop
endfacet
facet normal 0.0 0.0 -1.0
  outer loop
    vertex 152.21444315413416 66.31626392184548 100.0
    vertex 162.21444315413416 156.3162639218454 100.0
    vertex 162.21444315413416 66.31626392184548 100.0
  endloop
endfacet
facet normal -1.0 -1.3871654732499257e-32 -5.639932965095794e-17
  outer loop
    vertex 52.21444315413416 66.31626392184548 100.0
    vertex 52.214443154134166 81.31626392184548 95.0
    vertex 52.21444315413416 66.31626392184548 0.0
  endloop
endfacet
facet normal -1.0 -1.3871654732499257e-32 -5.639932965095794e-17
  outer loop
    vertex 52.214443154134166 81.31626392184548 95.0
    vertex 52.21444315413416 66.31626392184548 100.0
    vertex 52.21444315413416 156.3162639218455 100.0
  endloop
endfacet
facet normal -1.0 -1.3871654732499257e-32 -5.639932965095794e-17
  outer loop
    vertex 52.214443154134166 81.31626392184548 95.0
    vertex 52.21444315413416 156.3162639218455 100.0
    vertex 52.214443154134166 141.31626392184546 95.0
  endloop
endfacet
facet normal -1.0 -1.3871654732499257e-32 -5.639932965095794e-17
  outer loop
    vertex 52.214443154134166 141.31626392184546 95.0
    vertex 52.21444315413416 156.3162639218455 100.0
    vertex 52.214443154134166 141.31626392184546 0.0
  endloop
endfacet
facet normal -1.0 -1.3871654732499257e-32 -5.639932965095794e-17
  outer loop
    vertex 52.214443154134166 141.31626392184546 0.0
    vertex 52.21444315413416 156.3162639218455 100.0
    vertex 52.21444315413416 156.3162639218455 0.0
  endloop
endfacet
facet normal -1.0 -1.3871654732499257e-32 -5.639932965095794e-17
  outer loop
    vertex 52.214443154134166 81.31626392184548 0.0
    vertex 52.21444315413416 66.31626392184548 0.0
    vertex 52.214443154134166 81.31626392184548 95.0
  endloop
endfacet
facet normal -0.0 1.0 -0.0
  outer loop
    vertex 52.214443154134166 81.31626392184548 95.0
    vertex 67.21444315413414 81.31626392184548 0.0
    vertex 52.214443154134166 81.31626392184548 0.0
  endloop
endfacet
facet normal -0.0 1.0 -0.0
  outer loop
    vertex 67.21444315413414 81.31626392184548 0.0
    vertex 52.214443154134166 81.31626392184548 95.0
    vertex 67.21444315413414 81.31626392184548 95.0
  endloop
endfacet
facet normal -1.0 0.0 0.0
  outer loop
    vertex 137.21444315413413 66.31626392184548 100.0
    vertex 137.21444315413413 81.31626392184548 95.0
    vertex 137.21444315413413 66.31626392184548 0.0
  endloop
endfacet
facet normal -1.0 0.0 0.0
  outer loop
    vertex 137.21444315413413 81.31626392184548 95.0
    vertex 137.21444315413413 66.31626392184548 100.0
    vertex 137.21444315413413 156.3162639218455 100.0
  endloop
endfacet
facet normal -1.0 0.0 0.0
  outer loop
    vertex 137.21444315413413 81.31626392184548 95.0
    vertex 137.21444315413413 156.3162639218455 100.0
    vertex 137.21444315413413 141.31626392184546 95.0
  endloop
endfacet
facet normal -1.0 0.0 0.0
  outer loop
    vertex 137.21444315413413 141.31626392184546 95.0
    vertex 137.21444315413413 156.3162639218455 100.0
    vertex 137.21444315413413 141.31626392184546 0.0
  endloop
endfacet
facet normal -1.0 0.0 0.0
  outer loop
    vertex 137.21444315413413 141.31626392184546 0.0
    vertex 137.21444315413413 156.3162639218455 100.0
    vertex 137.21444315413413 156.3162639218455 0.0
  endloop
endfacet
facet normal -1.0 0.0 0.0
  outer loop
    vertex 137.21444315413413 81.31626392184548 0.0
    vertex 137.21444315413413 66.31626392184548 0.0
    vertex 137.21444315413413 81.31626392184548 95.0
  endloop
endfacet
facet normal -0.0 1.0 -0.0
  outer loop
    vertex 137.21444315413413 81.31626392184548 95.0
    vertex 152.21444315413416 81.31626392184548 0.0
    vertex 137.21444315413413 81.31626392184548 0.0
  endloop
endfacet
facet normal -0.0 1.0 -0.0
  outer loop
    vertex 152.21444315413416 81.31626392184548 0.0
    vertex 137.21444315413413 81.31626392184548 95.0
    vertex 152.21444315413416 81.31626392184548 95.0
  endloop
endfacet
facet normal 0.0 -1.0 0.0
  outer loop
    vertex 152.21444315413416 141.31626392184546 95.0
    vertex 137.21444315413413 141.31626392184546 0.0
    vertex 152.21444315413416 141.31626392184546 0.0
  endloop
endfacet
facet normal 0.0 -1.0 0.0
  outer loop
    vertex 137.21444315413413 141.31626392184546 0.0
    vertex 152.21444315413416 141.31626392184546 95.0
    vertex 137.21444315413413 141.31626392184546 95.0
  endloop
endfacet
facet normal 0.0 -1.0 0.0
  outer loop
    vertex 67.21444315413414 141.31626392184546 95.0
    vertex 52.214443154134166 141.31626392184546 0.0
    vertex 67.21444315413414 141.31626392184546 0.0
  endloop
endfacet
facet normal 0.0 -1.0 0.0
  outer loop
    vertex 52.214443154134166 141.31626392184546 0.0
    vertex 67.21444315413414 141.31626392184546 95.0
    vertex 52.214443154134166 141.31626392184546 95.0
  endloop
endfacet
facet normal 0.0 0.0 -1.0
  outer loop
    vertex 67.21444315413414 156.3162639218455 0.0
    vertex 52.214443154134166 141.31626392184546 0.0
    vertex 52.21444315413416 156.3162639218455 0.0
  endloop
endfacet
facet normal 0.0 0.0 -1.0
  outer loop
    vertex 52.214443154134166 141.31626392184546 0.0
    vertex 67.21444315413414 156.3162639218455 0.0
    vertex 67.21444315413414 141.31626392184546 0.0
  endloop
endfacet
facet normal -0.0 0.0 -1.0
  outer loop
    vertex 152.21444315413416 141.31626392184546 95.0
    vertex 137.21444315413413 81.31626392184548 95.0
    vertex 137.21444315413413 141.31626392184546 95.0
  endloop
endfacet
facet normal -0.0 0.0 -1.0
  outer loop
    vertex 137.21444315413413 81.31626392184548 95.0
    vertex 152.21444315413416 141.31626392184546 95.0
    vertex 152.21444315413416 81.31626392184548 95.0
  endloop
endfacet
facet normal -0.0 -0.0 -1.0
  outer loop
    vertex 67.21444315413414 141.31626392184546 95.0
    vertex 52.214443154134166 81.31626392184548 95.0
    vertex 52.214443154134166 141.31626392184546 95.0
  endloop
endfacet
facet normal -0.0 -0.0 -1.0
  outer loop
    vertex 52.214443154134166 81.31626392184548 95.0
    vertex 67.21444315413414 141.31626392184546 95.0
    vertex 67.21444315413414 81.31626392184548 95.0
  endloop
endfacet
endsolid Untitled-59946efc
